<svg width="125" height="25" viewBox="0 0 125 25" fill="none" xmlns="http://www.w3.org/2000/svg">
<g clip-path="url(#clip0_2_359)">
<path d="M16.3365 17.577C14.6157 17.3945 13.2679 16.0136 13.1569 14.3236C13.1305 13.9222 13.1735 13.5329 13.2762 13.1676C13.3104 13.0457 13.2429 12.9186 13.1213 12.8753C12.6405 12.7036 11.4164 12.3005 9.85529 12.0391C9.80571 12.0309 9.7671 11.9919 9.76184 11.9433C9.66224 11.0604 8.8975 10.3735 7.96824 10.3735C7.12847 10.3735 6.42252 10.935 6.22114 11.6948C6.20885 11.7416 6.16586 11.7746 6.11628 11.7764C4.57101 11.8339 2.93447 12.2043 1.44756 12.8079C0.737222 13.0963 0.915793 14.1382 1.67922 14.233C5.14313 14.6619 11.8266 16.6013 15.785 22.9608C16.0899 23.4501 16.5313 24.1773 17.1447 23.9614C17.8019 23.73 17.4693 22.1593 17.2324 21.248C17.2135 21.1768 17.3145 21.1398 17.3482 21.2051C17.7813 22.0503 18.5504 23.4853 19.3498 23.2741C20.2317 23.041 19.3652 19.5211 18.1963 17.5555C18.1261 17.437 17.9814 17.3817 17.8484 17.4242C17.3794 17.5748 16.8669 17.6336 16.3369 17.5774L16.3365 17.577Z" fill="#FFB726"/>
<path d="M13.7799 13.1569C13.7031 13.4239 13.6623 13.705 13.6623 13.9956C13.6623 15.708 15.0808 17.0958 16.8309 17.0958C17.2162 17.0958 17.5856 17.0288 17.9269 16.9047C19.1366 16.4686 19.9996 15.3306 19.9996 13.9956C19.9996 12.2833 18.5811 10.8955 16.8309 10.8955C15.3778 10.8955 14.1533 11.8523 13.7794 13.1569H13.7799Z" fill="#FFB726"/>
<path d="M17.1178 10.5938C17.1863 10.6732 17.3197 10.6311 17.3271 10.5268V10.5251C17.4346 9.13474 17.7233 2.93019 14.6007 0.135274C14.3042 -0.130868 13.8268 0.0163689 13.7426 0.402275C13.4069 1.94461 13.2696 6.06552 17.0354 10.4976C17.0626 10.5298 17.0906 10.5616 17.1178 10.5938Z" fill="#FFB726"/>
<path d="M15.2532 10.85C15.2664 10.859 15.2795 10.8676 15.2936 10.8766C15.3787 10.9316 15.4897 10.8565 15.4673 10.7595C15.4673 10.7577 15.4664 10.7569 15.4664 10.7556C15.1773 9.44549 13.7145 3.67836 10.0734 1.94543C9.7263 1.7806 9.32923 2.04245 9.35907 2.41848C9.48148 3.93077 10.5108 7.77781 15.2532 10.8505V10.85Z" fill="#FFB726"/>
</g>
<path d="M31.1543 14.1847V19.8553H29V3.96484H35.1754C38.2964 3.96484 40.2962 6.00954 40.2962 9.06401C40.2962 12.1185 38.2748 14.1847 35.1754 14.1847H31.1525H31.1543ZM31.1543 5.89994V12.2514H34.7155C36.8464 12.2514 38.034 10.9991 38.034 9.04245C38.034 7.0858 36.8248 5.89994 34.8035 5.89994H31.1543Z" fill="#1E0A0A"/>
<path d="M48.5396 10.9092H47.6161C45.6594 10.9092 44.452 12.0969 44.452 14.1614V19.8535H42.3857V9.12867H44.319L44.4502 10.7547C44.8904 9.63356 45.9667 8.88611 47.44 8.88611C47.8137 8.88611 48.121 8.92923 48.5396 9.01727V10.9074V10.9092Z" fill="#1E0A0A"/>
<path d="M54.9792 8.82153C58.1882 8.82153 60.5617 11.1519 60.5617 14.4705C60.5617 17.7891 58.1882 20.1195 54.9792 20.1195C51.7702 20.1195 49.3751 17.7891 49.3751 14.4705C49.3751 11.1519 51.7486 8.82153 54.9792 8.82153ZM54.9792 18.2724C57.0454 18.2724 58.4954 16.7111 58.4954 14.4705C58.4954 12.23 57.0454 10.6686 54.9792 10.6686C52.9129 10.6686 51.4629 12.23 51.4629 14.4705C51.4629 16.7111 52.8914 18.2724 54.9792 18.2724Z" fill="#1E0A0A"/>
<path d="M60.4736 22.1103C60.8905 22.2199 61.133 22.2648 61.4618 22.2648C62.45 22.2648 62.8471 21.6934 62.8471 20.4842V9.1072H64.9134V20.6818C64.9134 22.8361 63.7257 24.1765 61.6379 24.1765C61.0881 24.1765 60.7359 24.155 60.1215 23.9789L60.4736 22.1103ZM62.5183 5.19568C62.5183 4.42667 63.1112 3.83374 63.8803 3.83374C64.6061 3.83374 65.2422 4.42667 65.2422 5.19568C65.2422 5.96468 64.6043 6.55761 63.8803 6.55761C63.1112 6.55761 62.5183 5.94133 62.5183 5.19568Z" fill="#1E0A0A"/>
<path d="M67.197 14.4919C67.197 11.1284 69.3298 8.7998 72.4507 8.7998C75.5717 8.7998 77.505 10.9092 77.505 14.0966V14.8656L69.1968 14.8872C69.3513 17.1511 70.5372 18.4034 72.5819 18.4034C74.1864 18.4034 75.2411 17.744 75.5932 16.5132H77.5265C76.9983 18.8203 75.1961 20.1175 72.537 20.1175C69.3729 20.1175 67.197 17.8321 67.197 14.4919ZM69.2417 13.5037H75.4387C75.4387 11.7231 74.2744 10.5373 72.4489 10.5373C70.6234 10.5373 69.504 11.6135 69.2399 13.5037H69.2417Z" fill="#1E0A0A"/>
<path d="M84.3847 8.7998C87.0889 8.7998 88.979 10.3378 89.351 12.7347H87.2847C86.9325 11.3727 85.8347 10.6469 84.4494 10.6469C82.4928 10.6469 81.1524 12.1418 81.1524 14.4703C81.1524 16.7989 82.4047 18.2723 84.3614 18.2723C85.8347 18.2723 86.9325 17.5033 87.3063 16.2276H89.3725C88.9557 18.5579 86.9541 20.1175 84.3614 20.1175C81.1973 20.1175 79.1095 17.8752 79.1095 14.4919C79.1095 11.1086 81.2422 8.7998 84.3847 8.7998Z" fill="#1E0A0A"/>
<path d="M92.5169 19.8552V10.8445H90.4075V9.10887H92.5169V5.74536H94.5831V9.10887H96.6925V10.8445H94.5831V19.8552H92.5169Z" fill="#1E0A0A"/>
<path d="M98.1855 5.19568C98.1855 4.42667 98.8 3.83374 99.5475 3.83374C100.295 3.83374 100.909 4.42667 100.909 5.19568C100.909 5.96468 100.293 6.55761 99.5475 6.55761C98.8018 6.55761 98.1855 5.94133 98.1855 5.19568ZM98.5377 9.1072H100.604V19.8553H98.5377V9.1072Z" fill="#1E0A0A"/>
<path d="M102.275 9.10718H104.472L106.824 15.1065C107.198 16.1181 107.505 17.0183 107.681 17.6777C107.857 16.9751 108.21 16.0516 108.583 15.1065L110.978 9.10718H113.133L108.65 19.8553H106.605L102.275 9.10718Z" fill="#1E0A0A"/>
<path d="M113.593 14.4919C113.593 11.1284 115.725 8.7998 118.845 8.7998C121.964 8.7998 123.899 10.9092 123.899 14.0966V14.8656L115.591 14.8872C115.745 17.1511 116.931 18.4034 118.976 18.4034C120.58 18.4034 121.635 17.744 121.987 16.5132H123.92C123.392 18.8203 121.59 20.1175 118.931 20.1175C115.767 20.1175 113.591 17.8321 113.591 14.4919H113.593ZM115.637 13.5037H121.834C121.834 11.7231 120.67 10.5373 118.845 10.5373C117.019 10.5373 115.9 11.6135 115.636 13.5037H115.637Z" fill="#1E0A0A"/>
<defs>
<clipPath id="clip0_2_359">
<rect width="19" height="24" fill="white" transform="translate(1)"/>
</clipPath>
</defs>
</svg>
