<svg width="14" height="16" viewBox="0 0 14 16" fill="none" xmlns="http://www.w3.org/2000/svg">
<g clip-path="url(#clip0_5_411)">
<path d="M10.891 11.7181C9.74381 11.5964 8.84525 10.6758 8.77125 9.54915C8.7537 9.28157 8.78236 9.02201 8.85081 8.77848C8.87362 8.69721 8.82858 8.6125 8.74756 8.58359C8.42698 8.46913 7.61091 8.20041 6.5702 8.02613C6.53714 8.02069 6.5114 7.99465 6.50789 7.96231C6.4415 7.37365 5.93167 6.91577 5.31216 6.91577C4.75231 6.91577 4.28168 7.29009 4.14743 7.79662C4.13924 7.82781 4.11057 7.84984 4.07752 7.85099C3.04734 7.88934 1.95632 8.1363 0.965037 8.53867C0.491481 8.73097 0.610529 9.42552 1.11948 9.48876C3.42876 9.77465 7.88439 11.0676 10.5233 15.3073C10.7266 15.6335 11.0209 16.1183 11.4298 15.9743C11.8679 15.8201 11.6462 14.773 11.4883 14.1654C11.4757 14.1179 11.543 14.0933 11.5655 14.1368C11.8542 14.7003 12.3669 15.657 12.8999 15.5162C13.4878 15.3608 12.9101 13.0141 12.1309 11.7038C12.0841 11.6248 11.9876 11.5879 11.8989 11.6162C11.5863 11.7166 11.2446 11.7558 10.8913 11.7183L10.891 11.7181Z" fill="#FFB726"/>
<path d="M9.18654 8.77124C9.13536 8.94924 9.10815 9.13668 9.10815 9.33042C9.10815 10.472 10.0538 11.3972 11.2206 11.3972C11.4774 11.3972 11.7237 11.3525 11.9512 11.2698C12.7577 10.9791 13.333 10.2204 13.333 9.33042C13.333 8.18887 12.3874 7.26367 11.2206 7.26367C10.2518 7.26367 9.43546 7.90155 9.18625 8.77124H9.18654Z" fill="#FFB726"/>
<path d="M11.4119 7.06249C11.4575 7.11543 11.5464 7.08739 11.5514 7.01785V7.0167C11.6231 6.08978 11.8155 1.95342 9.73383 0.0901422C9.5361 -0.0872858 9.21786 0.0108719 9.1617 0.268143C8.93794 1.29637 8.84639 4.04364 11.3569 6.99839C11.375 7.01985 11.3938 7.04103 11.4119 7.06249Z" fill="#FFB726"/>
<path d="M10.1688 7.23335C10.1775 7.23936 10.1863 7.24509 10.1957 7.2511C10.2524 7.28773 10.3264 7.23765 10.3115 7.17297C10.3115 7.17182 10.3109 7.17125 10.3109 7.17039C10.1182 6.29699 9.14297 2.45224 6.71553 1.29696C6.48416 1.18706 6.21945 1.36163 6.23934 1.61232C6.32094 2.62051 7.00715 5.1852 10.1688 7.23364V7.23335Z" fill="#FFB726"/>
</g>
<defs>
<clipPath id="clip0_5_411">
<rect width="12.6667" height="16" fill="white" transform="translate(0.666687)"/>
</clipPath>
</defs>
</svg>
